<?xml version="1.0" encoding="iso-8859-1"?>
<!-- Generator: Adobe Illustrator 18.1.1, SVG Export Plug-In . SVG Version: 6.00 Build 0)  -->
<svg version="1.1" id="Capa_1" xmlns="http://www.w3.org/2000/svg" xmlns:xlink="http://www.w3.org/1999/xlink" x="0px" y="0px"
	 viewBox="0 0 381.247 381.247" style="enable-background:new 0 0 381.247 381.247;" xml:space="preserve">
<g>
	<g>
		<path style="fill:#010002;" d="M191.847,360.957c-4.648,0-9.076-1.784-12.447-5.024c-0.245-0.233-29.256-28.289-146.439-145.472
			l-0.817-0.817c-1.205-1.193-1.796-1.88-2.387-2.572C10.621,186.384,0,159.48,0,131.483C0,70.173,49.883,20.29,111.193,20.29
			c30.091,0,58.672,12.113,79.425,33.444c20.759-21.332,49.346-33.444,79.437-33.444c61.31,0,111.193,49.883,111.193,111.193
			c0,30.723-12.31,59.305-34.673,80.535c-0.328,0.382-0.627,0.686-0.847,0.901C227.6,331.045,205.195,355.002,204.98,355.229
			c-3.288,3.514-7.9,5.597-12.674,5.716L191.847,360.957z"/>
	</g>
</g>
<g>
</g>
<g>
</g>
<g>
</g>
<g>
</g>
<g>
</g>
<g>
</g>
<g>
</g>
<g>
</g>
<g>
</g>
<g>
</g>
<g>
</g>
<g>
</g>
<g>
</g>
<g>
</g>
<g>
</g>
</svg>
